<svg xmlns="http://www.w3.org/2000/svg" viewBox="0 0 1024 1024"><defs>
<linearGradient id="bg" x1="140" y1="100" x2="880" y2="924" gradientUnits="userSpaceOnUse"><stop offset="0" stop-color="#2d1a86"/><stop offset=".6" stop-color="#160c4d"/><stop offset="1" stop-color="#0a0727"/></linearGradient>
<radialGradient id="halo" cx="512" cy="548" r="380" gradientUnits="userSpaceOnUse"><stop offset="0" stop-color="#9a6bff" stop-opacity=".55"/><stop offset="1" stop-color="#9a6bff" stop-opacity="0"/></radialGradient>
<radialGradient id="t0" cx="252" cy="321" r="300" gradientUnits="userSpaceOnUse"><stop offset="0" stop-color="#ff3d9a"/><stop offset=".55" stop-color="#ff3d9a"/><stop offset="1" stop-color="#ff3d9a" stop-opacity="0"/></radialGradient><radialGradient id="t1" cx="772" cy="321" r="300" gradientUnits="userSpaceOnUse"><stop offset="0" stop-color="#27d8ff"/><stop offset=".55" stop-color="#27d8ff"/><stop offset="1" stop-color="#27d8ff" stop-opacity="0"/></radialGradient><radialGradient id="t2" cx="512" cy="850" r="300" gradientUnits="userSpaceOnUse"><stop offset="0" stop-color="#ffc21e"/><stop offset=".55" stop-color="#ffc21e"/><stop offset="1" stop-color="#ffc21e" stop-opacity="0"/></radialGradient><linearGradient id="gloss" x1="0" y1="100" x2="0" y2="924" gradientUnits="userSpaceOnUse"><stop offset="0" stop-color="#fff" stop-opacity=".2"/><stop offset=".45" stop-color="#fff" stop-opacity="0"/></linearGradient>
<filter id="lift" x="-30%" y="-30%" width="160%" height="170%"><feDropShadow dx="0" dy="18" stdDeviation="22" flood-color="#1a0630" flood-opacity=".42"/></filter>
<filter id="glow" x="-60%" y="-60%" width="220%" height="220%"><feGaussianBlur stdDeviation="20" result="b"/><feMerge><feMergeNode in="b"/><feMergeNode in="SourceGraphic"/></feMerge></filter></defs>
<rect x="100" y="100" width="824" height="824" rx="186" fill="url(#bg)"/><rect x="100" y="100" width="824" height="824" rx="186" fill="url(#halo)"/>
<g filter="url(#glow)"><path d="M251.5 321.5 C512.0 496.0 512.0 496.0 772.5 321.5 C551.9 558.6 551.9 558.6 512.0 850.0 C472.1 558.6 472.1 558.6 251.5 321.5Z" fill="#fff"/><path d="M251.5 321.5 C512.0 496.0 512.0 496.0 772.5 321.5 C551.9 558.6 551.9 558.6 512.0 850.0 C472.1 558.6 472.1 558.6 251.5 321.5Z" fill="url(#t0)"/><path d="M251.5 321.5 C512.0 496.0 512.0 496.0 772.5 321.5 C551.9 558.6 551.9 558.6 512.0 850.0 C472.1 558.6 472.1 558.6 251.5 321.5Z" fill="url(#t1)"/><path d="M251.5 321.5 C512.0 496.0 512.0 496.0 772.5 321.5 C551.9 558.6 551.9 558.6 512.0 850.0 C472.1 558.6 472.1 558.6 251.5 321.5Z" fill="url(#t2)"/></g>
<circle cx="512" cy="540" r="40" fill="#fff" filter="url(#glow)"/>
<path d="M770.0 212.0 C778.0 254.0 778.0 254.0 820.0 262.0 C778.0 270.0 778.0 270.0 770.0 312.0 C762.0 270.0 762.0 270.0 720.0 262.0 C762.0 254.0 762.0 254.0 770.0 212.0Z" fill="#fff" fill-opacity=".9"/>
<rect x="100" y="100" width="824" height="824" rx="186" fill="url(#gloss)"/><rect x="102" y="102" width="820" height="820" rx="184" fill="none" stroke="#fff" stroke-opacity=".2" stroke-width="4"/></svg>